Patient4_TMGait_0pt3_02_left_12_EMG.mot
version=1
nRows=16
nColumns=33
inDegrees=no
endheader
time	1LAddLong	2LGlutMax	3LGlutMed	4LIliopsoas	5LSemiMemb	6LBicFemLong	7LRecFem	8LVastMed	9LVastLat	10LGasMed	11LTibAnt	12lTibPost	13LPeroneusLong	14LSol	15LExtDigLong	16LFlexDigLong	17RAddLong	18RGlutMax	19RGlutMed	20RIliopsoas	21RSemiMemb	22RBicFemLong	23RRecFem	24RVastMed	25RVastLat	26RGasMed	27RTibAnt	28RTibPost	29RPeroneusLong	30RSol	31RExtDigLong	32RFlexDigLong
24.69	0.012665	-0.083313	-0.1358	0.015869	0.024567	0.01297	-0.047913	-0.038605	0.061798	-0.090942	-0.037842	0.019531	-0.4512	-0.10513	0.11902	-0.08728	0.024719	0.029297	0.0383	0.49347	-0.23621	-0.018768	-0.035248	0.063477	-0.00351	-0.018005	0.12253	-0.003815	-0.057831	0.058441	-0.000458	-0.014038
24.691	-0.000458	-0.066376	-0.10696	0.010376	0.011292	0.02182	0.024261	-0.023041	-0.054169	-0.12222	-0.053864	-0.003052	-0.1416	-0.088501	0.15823	-0.067139	-0.01236	0.023956	0.12528	0.25085	0.27283	-0.016479	-0.083313	0.11383	0.073547	-0.009766	-0.048065	-0.001984	-0.042267	0.003662	0.000153	-0.011597
24.692	-0.012054	-0.062561	-0.046692	0.005951	-0.00946	0.008698	-0.022583	-0.008545	-0.082855	-0.16098	-0.027771	0.016479	-0.003967	0.003204	0.6105	-0.062561	-0.015564	0.041962	-0.19104	0.12848	0.22156	0.019379	-0.009003	0.082245	0.055084	-0.002136	-0.1181	-0.002289	-0.051575	-0.00351	-0.003204	-0.018768
24.693	-0.002899	-0.06424	-0.1001	-0.004883	-0.018005	-0.006561	-0.078888	0.006409	-0.019531	-0.16174	0.19424	0.023956	-0.024872	0.066223	0.15167	-0.046997	-0.027771	0.057068	-0.43884	0.11643	0.10193	0.037537	-0.010376	0.07782	0.048676	-0.000305	-0.000305	0.001984	-0.061493	-0.010681	0.004883	-0.018616
24.694	-0.005035	-0.037384	-0.07782	-0.009155	-0.025787	0.006866	-0.098267	-0.002136	-0.010223	-0.11581	0.29221	0.011749	-0.044708	0.039825	0.1619	-0.02655	-0.02533	0.049896	-0.22507	0.052795	0.020142	-0.002747	-0.060577	0.037079	0.043945	0.002594	0.20477	0.002136	0.007935	-0.067444	-0.001373	-0.006714
24.695	-0.000305	-0.065613	-0.049438	0	-0.036621	-0.0177	-0.089569	-0.006256	-0.009308	-0.06485	0.068359	0.018005	-0.005188	-0.012512	0.18402	-0.028229	-0.010071	0.092163	-0.046387	0.022888	0.027771	-0.029449	-0.089111	0.052185	0.057526	-0.001068	0.44922	-0.002899	-0.050812	-0.031891	-0.000305	-0.018005
24.696	-0.001678	-0.076752	-0.074463	0.003052	-0.034332	-0.084381	-0.10346	0.005798	-0.019226	-0.053711	-0.11505	0.000763	0.05249	-0.004272	-0.3122	-0.027008	0.010834	0.030212	-0.14023	-0.003815	-0.024109	-0.04837	-0.011292	-0.044861	0.059814	-0.010223	0.61829	-0.002441	-0.07309	-0.000763	0.007629	-0.014648
24.697	-0.003204	-0.066528	-0.094757	0.00061	0.020294	-0.15793	-0.098114	-0.009918	-0.019226	-0.019836	0.068512	0.015717	-0.051575	-0.000763	0.45197	-0.023956	0.027466	0.06958	-0.28366	-0.073547	-0.076294	-0.040588	-0.036011	-0.1033	0.031891	-0.003357	0.96252	-0.003815	-0.13641	-0.12756	-0.001678	-0.009308
24.698	0.002747	-0.072174	-0.13641	0.004425	0.036011	-0.13504	-0.090942	-0.011597	-0.004578	-0.022583	0.15732	0.017242	-0.12604	0.009766	-0.19684	-0.005951	0.019379	0.03479	-0.14313	-0.079041	-0.092773	-0.015259	-0.052948	-0.087585	0.033264	-0.005341	0.95062	-0.005493	-0.10315	-0.080414	-0.000305	-0.007324
24.699	0.009918	-0.05249	-0.15671	0.004425	0.043488	-0.080872	-0.092163	0.000458	0.000916	-0.11231	-0.020142	0.006561	-0.097656	0.071411	-0.19134	-0.002289	-0.013123	0.055695	0.11871	-0.12177	-0.052948	0.021667	-0.088043	-0.011139	0.040588	-0.01236	0.21576	-0.003662	0.015259	0.036316	-0.008087	0.001221
24.7	0.041504	-0.08316	-0.13534	0.005035	0.02121	-0.037231	-0.088654	-0.009155	-0.014954	-0.15595	-0.05661	0.026855	-0.12024	0.090179	-0.24582	-0.033875	-0.019836	0.042419	-0.24918	-0.081635	-0.036469	-0.048065	-0.07309	-0.019073	0.029602	-0.012817	-0.47699	-0.003357	0.13794	0.049133	-0.000305	0.000916
24.701	0.011749	-0.076599	-0.10407	0.003967	-0.000153	0.028534	-0.10666	-0.003204	-0.043945	-0.084076	-0.10361	0.010681	-0.16449	0.08255	-0.26016	-0.057526	-0.006561	0.030975	-0.088348	-0.05249	-0.058441	-0.14954	-0.085144	-0.039978	0.055237	-0.00885	-0.82077	-0.002136	0.10635	0.039368	-0.000916	-0.003967
24.702	0.006714	-0.085907	-0.093689	-0.002289	-0.026245	0.03418	-0.093842	-0.000305	-0.047302	0.046539	-0.16007	-0.001526	-0.13962	0.031128	-0.26535	-0.076599	0.011139	0.02243	-0.099335	-0.037231	-0.066833	-0.14847	-0.063782	-0.10544	0.039215	-0.00824	-0.72052	0.002289	0.085754	0.025482	0.002289	-0.003967
24.703	0.0177	-0.051117	-0.10071	-0.00412	0.001831	0.020294	-0.12085	-0.002289	-0.073242	0.096893	0.030518	0.014191	-0.088043	0.055695	-0.13596	-0.053101	0.015564	0.059967	-0.079803	-0.14145	0.1239	-0.12421	0.028992	-0.12131	0.025024	-0.001221	-0.38666	-0.007782	0.080261	0.028839	0.001068	-0.002441
24.704	-0.004272	-0.022736	-0.07782	-0.007324	0.023804	0.007629	-0.095062	-0.011292	-0.17807	0.11673	0.13031	0.009918	-0.046234	0.039978	0.014191	-0.053711	0.029755	0.043488	-0.11169	-0.12268	0.14755	-0.14404	0.043945	-0.079803	-0.01358	-0.002136	-0.19623	-0.002899	0.069122	0.046234	-0.002899	-0.006866
24.705	0.007935	-0.041046	-0.030518	0.001526	-0.028687	0.011597	-0.12482	-0.019836	-0.042267	0.057068	0.001221	0.020294	0.057983	-0.030975	0.096436	-0.047913	0.045013	0.013275	-0.085297	-0.039063	0.088501	-0.14023	0.048828	-0.076599	-0.020905	-0.008545	-0.07843	-0.003357	0.11383	0.014954	-0.001831	-0.013885
